Coordinates
version=1
nRows=13
nColumns=34
inDegrees=yes

Units are S.I. units (second, meters, Newtons, ...)
If the header above contains a line with 'inDegrees', this indicates whether rotational values are in degrees (yes) or radians (no).

endheader
time	pelvis_tilt	pelvis_list	pelvis_rotation	pelvis_tx	pelvis_ty	pelvis_tz	hip_flexion_r	hip_adduction_r	hip_rotation_r	knee_angle_r	ankle_angle_r	subtalar_angle_r	mtp_angle_r	hip_flexion_l	hip_adduction_l	hip_rotation_l	knee_angle_l	ankle_angle_l	subtalar_angle_l	mtp_angle_l	lumbar_extension	lumbar_bending	lumbar_rotation	arm_flex_r	arm_add_r	arm_rot_r	elbow_flex_r	pro_sup_r	arm_flex_l	arm_add_l	arm_rot_l	elbow_flex_l	pro_sup_l
      5.13333330	    -31.61594016	    -28.73711014	    370.52620223	     -9.56968189	      1.22566591	      1.05122693	     56.08969282	      5.39500221	    -24.87215070	     30.73159998	     24.62534313	      9.90580338	      0.00000000	     -5.91725015	    -19.70384199	     -3.70590836	     24.69901773	    -10.75010940	     -0.28963543	      0.00000000	     -5.31553541	     35.78361215	     -5.79486782	   -201.77175012	    219.25599409	   -194.98746430	     80.75041787	     63.38586256	   -154.72405967	   -157.88276318	   -105.56455678	     87.92005128	     68.99882623
      5.13750000	    -30.36002175	    -27.51783242	    371.19954731	     -9.53696152	      1.22784869	      1.04902261	     53.10519176	      5.51431530	    -23.75031184	     29.87627500	     24.88013699	      9.21001952	      0.00000000	     -7.29897184	    -18.87170409	     -4.75025306	     25.38183062	    -10.67766409	     -2.72090659	      0.00000000	     -5.42882228	     34.89013576	     -9.60895594	   -193.90753452	    219.68846836	   -186.57908661	     76.76673594	     64.00349039	   -164.22969599	   -157.51716098	   -117.16282140	     85.52244665	     73.75508844
      5.14166670	    -28.80553616	    -25.82154694	    371.79329538	     -9.50209396	      1.23144274	      1.04647657	     49.76639732	      5.45510348	    -22.08073834	     29.35299137	     25.52221045	      8.35629911	      0.00000000	     -8.77689517	    -17.69434181	     -5.39157753	     26.66478784	     -7.99844859	     -5.60253583	      0.00000000	     -5.88427763	     33.38318229	    -11.52496123	   -188.28486715	    218.47834724	   -181.14255802	     73.29171800	     64.64387313	   -170.98284892	   -158.75260667	   -125.59578356	     81.55263595	     77.08264198
      5.14583330	    -27.01884533	    -24.77282071	    372.29835589	     -9.46746200	      1.23329780	      1.04337763	     46.09042984	      5.96387756	    -20.69616144	     28.94406298	     26.28811904	      7.53648844	      0.00000000	    -10.03204609	    -17.25432781	     -5.95014773	     27.04650054	     -2.91364010	     -7.16436662	      0.00000000	     -6.13398747	     32.37790451	    -10.63713811	   -186.67751957	    217.32533364	   -179.60066289	     71.04224412	     64.87384940	   -173.88416848	   -160.64812120	   -129.39574788	     76.88623396	     77.66125668
      5.15000000	    -24.79973166	    -23.91110529	    372.68265560	     -9.43213889	      1.23495938	      1.04013257	     41.74415359	      6.91208449	    -19.33916575	     28.65956838	     27.25262638	      7.01988374	      0.00000000	    -11.39855436	    -16.92443406	     -6.34769237	     27.15901705	      2.77475304	     -8.25005088	      0.00000000	     -6.73814620	     31.68457951	     -9.55873348	   -184.50721997	    216.26703759	   -177.71372864	     69.08640492	     65.37497143	   -176.60175995	   -162.52263273	   -132.63536974	     72.70418811	     77.63652101
      5.15416670	    -22.25266204	    -22.64848240	    372.96446761	     -9.39574351	      1.23775105	      1.03678122	     36.59250838	      7.78543673	    -17.45758580	     28.31621597	     28.80384519	      6.48403051	      0.00000000	    -12.81989836	    -16.13260762	     -6.14940299	     28.13517108	      8.20409014	     -8.90741830	      0.00000000	     -7.79806743	     30.64517358	     -8.08259416	   -182.30238852	    215.12920329	   -175.98374675	     66.73452165	     65.93610782	   -178.93018430	   -163.89913136	   -135.05783634	     68.34790479	     77.30737751
      5.15833330	    -19.55785076	    -21.13491569	    373.14083482	     -9.35913301	      1.24073586	      1.03354308	     31.04414043	      8.34665518	    -15.32870296	     28.01131093	     30.53312911	      5.85641159	      0.00000000	    -14.26221668	    -15.09499514	     -5.53553267	     29.47466467	     13.80712885	     -9.34217307	      0.00000000	     -9.04610710	     29.27574900	     -6.55091476	   -179.92676453	    213.87991262	   -173.98620021	     63.75350328	     66.66417630	   -181.31423153	   -164.97351422	   -137.23025928	     64.24069892	     76.73631575
      5.16250000	    -16.65940968	    -18.94798968	    373.17501429	     -9.32281420	      1.24393751	      1.03111698	     25.12414076	      8.09028458	    -13.11205273	     28.02670811	     32.56115844	      5.42469353	      0.00000000	    -15.89364162	    -13.24665559	     -4.36562007	     31.10404694	     19.66565044	    -10.46511278	      0.00000000	    -10.60607496	     27.02894709	     -4.51879479	   -178.47935193	    212.39391407	   -172.80459321	     60.98429761	     67.06140139	   -183.25798140	   -165.33859984	   -138.17210311	     60.36494355	     76.27361769
      5.16666670	    -13.57235271	    -16.60246330	    373.26499367	     -9.28770503	      1.24761139	      1.02899248	     18.80685647	      7.49022120	    -11.05085697	     27.61504602	     34.22157813	      4.98832771	      0.00000000	    -17.02703887	    -11.29987440	     -2.74738247	     34.35408140	     24.59981244	    -10.97256168	      0.00000000	    -12.10376452	     24.73580738	     -4.15014430	   -174.27390549	    210.97666559	   -167.71444269	     55.19153480	     68.96511129	   -186.19331355	   -165.14144740	   -140.12463442	     57.52069009	     74.45562558
      5.17083330	    -10.73864171	    -14.06114424	    372.65835065	     -9.25513547	      1.25058518	      1.02806514	     12.96144451	      6.38879082	     -9.02134655	     27.54983065	     36.18489577	      5.14745191	      0.00000000	    -17.73289040	     -8.84882724	     -1.45296443	     38.11549043	     28.11296004	    -11.95234052	      0.00000000	    -14.06273850	     22.05864264	     -1.98766410	   -172.42195245	    209.53771132	   -166.30394433	     51.48349423	     69.48970813	   -187.84936654	   -164.68655628	   -140.25359223	     54.29459286	     73.61522719
      5.17500000	     -8.22629192	    -11.53451359	    372.13671352	     -9.22552287	      1.25247646	      1.02771420	      7.71156585	      4.83692694	     -7.68183588	     27.67115903	     37.90525162	      5.38413319	      0.00000000	    -17.73966930	     -6.26488854	      0.23617115	     42.34286839	     31.34399019	    -12.96774927	      0.00000000	    -15.38015870	     19.25818343	     -0.92539331	   -169.64094734	    208.01939085	   -162.48995518	     46.25029603	     70.60646131	   -189.75359905	   -163.32053263	   -139.53701275	     51.88720878	     72.08981970
      5.17916670	     -6.41889944	     -9.06276263	    371.29856083	     -9.19879057	      1.25286459	      1.02767576	      3.52079984	      2.90193435	     -6.51247033	     27.92806321	     39.55233051	      5.66331061	      0.00000000	    -17.01097101	     -3.33407159	      1.78710727	     46.37518662	     33.99306268	    -14.05211246	      0.00000000	    -15.78980924	     16.51282238	     -0.57582909	   -166.40499670	    206.90537990	   -156.76252271	     41.18074892	     72.09313174	   -191.93650302	   -161.73676310	   -138.54203299	     49.89107047	     69.55139161
      5.18333330	     -5.02803161	     -7.09861408	    370.20670608	     -9.17559935	      1.25187473	      1.02809733	      0.34457485	      1.18112279	     -5.47584533	     28.43763119	     41.03570453	      6.15264875	      0.00000000	    -15.67022514	     -0.68970917	      2.82451978	     50.43279062	     35.84873446	    -15.21604044	      0.00000000	    -16.08946826	     14.31255728	     -0.21340067	   -163.05791780	    205.97697335	   -150.15391312	     36.72833496	     73.35354431	   -193.85821813	   -160.10088087	   -136.88480752	     48.16845753	     66.15020880
